<?xml version="1.0" standalone="no"?>
<!DOCTYPE svg PUBLIC "-//W3C//DTD SVG 20010904//EN"
 "http://www.w3.org/TR/2001/REC-SVG-20010904/DTD/svg10.dtd">
<svg version="1.0" xmlns="http://www.w3.org/2000/svg"
 width="16.000000pt" height="16.000000pt" viewBox="0 0 16.000000 16.000000"
 preserveAspectRatio="xMidYMid meet">
<metadata>
Created by potrace 1.11, written by Peter Selinger 2001-2013
</metadata>
<g transform="translate(0.000000,16.000000) scale(0.002286,-0.002286)"
fill="#000000" stroke="none">
<path d="M3290 6994 c-19 -2 -87 -9 -150 -15 -647 -61 -1294 -326 -1825 -746
-141 -111 -437 -407 -548 -548 -413 -521 -662 -1120 -744 -1785 -24 -200 -24
-600 0 -800 82 -665 331 -1264 744 -1785 111 -141 407 -437 548 -548 521 -413
1120 -662 1785 -744 200 -24 600 -24 800 0 665 82 1264 331 1785 744 141 111
437 407 548 548 413 521 662 1120 744 1785 24 200 24 599 0 800 -63 510 -220
973 -475 1397 -157 260 -304 446 -531 673 l-166 165 -5 -2630 -5 -2630 -325 0
-325 0 -3 2857 -2 2858 -98 49 c-349 175 -730 287 -1142 337 -120 14 -537 27
-610 18z m565 -894 c121 -17 257 -46 382 -82 l113 -33 0 -352 c0 -194 -1 -353
-3 -353 -1 0 -41 16 -87 36 -124 52 -287 99 -435 125 -167 29 -463 32 -620 5
-435 -74 -796 -257 -1095 -556 -298 -299 -482 -660 -556 -1095 -24 -138 -24
-452 0 -590 74 -435 258 -796 556 -1095 299 -299 660 -482 1095 -556 157 -27
453 -24 620 5 148 26 311 73 435 125 46 20 86 36 87 36 2 0 3 -159 3 -352 l0
-353 -113 -33 c-409 -118 -852 -136 -1267 -52 -402 81 -800 270 -1130 537
-395 318 -716 802 -859 1296 -117 401 -135 855 -51 1267 81 402 270 800 537
1130 318 395 802 716 1296 859 198 58 452 98 652 104 111 3 344 -9 440 -23z"/>
</g>
</svg>
